<?xml version="1.0" encoding="utf-8"?>
<!-- Generator: Adobe Illustrator 27.3.1, SVG Export Plug-In . SVG Version: 6.00 Build 0)  -->
<svg version="1.1" id="Ebene_1" xmlns="http://www.w3.org/2000/svg" xmlns:xlink="http://www.w3.org/1999/xlink" x="0px" y="0px"
	 viewBox="0 0 46 46" style="enable-background:new 0 0 46 46;" xml:space="preserve">
<style type="text/css">
	.st0{fill:none;stroke:#FFFFFF;stroke-width:2.875;stroke-linecap:round;stroke-linejoin:round;stroke-miterlimit:7.6667;}
</style>
<path class="st0" d="M23.6,16.6c-3.6-0.4-6.9,2.1-7.3,5.7c-0.4,3.5,2.2,6.7,5.8,7.2c0.1,0,0.2,0,0.2,0c3.6,0.3,6.8-2.4,7.1-5.9
	C29.7,20.1,27.2,17,23.6,16.6C23.6,16.6,23.6,16.6,23.6,16.6z M39.6,23c0,0.7-0.1,1.4-0.2,2.1l4.7,3.6c0.4,0.3,0.5,0.9,0.3,1.4
	l-4.4,7.5c-0.3,0.5-0.8,0.6-1.4,0.5l-4.6-1.8c-0.5-0.2-1.1-0.1-1.6,0.2c-0.7,0.5-1.5,0.9-2.2,1.3c-0.5,0.2-0.8,0.7-0.9,1.2l-0.7,4.8
	c-0.1,0.5-0.6,0.9-1.1,0.9h-8.9c-0.5,0-1-0.4-1.1-0.9l-0.7-4.8c-0.1-0.5-0.4-1-0.9-1.2c-0.8-0.4-1.5-0.8-2.2-1.3
	c-0.5-0.3-1-0.4-1.6-0.2L7.4,38c-0.5,0.2-1.1,0-1.4-0.5l-4.4-7.5c-0.3-0.5-0.2-1,0.3-1.4l4-3c0.4-0.3,0.7-0.9,0.6-1.4
	c-0.1-0.8-0.1-1.7,0-2.5c0-0.5-0.2-1.1-0.6-1.4l-4-3C1.4,17,1.3,16.4,1.6,16L6,8.5C6.3,8,6.9,7.8,7.4,8L12,9.9
	c0.5,0.2,1.1,0.1,1.6-0.2c0.7-0.5,1.5-0.9,2.2-1.3c0.5-0.2,0.8-0.7,0.9-1.2l0.7-4.8c0.1-0.5,0.6-0.9,1.1-0.9h8.9
	c0.5,0,1,0.4,1.1,0.9l0.7,4.8c0.1,0.5,0.4,1,0.9,1.2c0.8,0.4,1.5,0.8,2.2,1.3c0.5,0.3,1,0.4,1.6,0.2L38.6,8c0.5-0.2,1.1,0,1.4,0.5
	l4.4,7.5c0.3,0.5,0.2,1-0.3,1.4l-4,3c-0.4,0.3-0.7,0.9-0.6,1.4C39.5,22.2,39.6,22.6,39.6,23L39.6,23z"/>
</svg>
